<?xml version="1.0" encoding="UTF-8"?>
<!DOCTYPE svg PUBLIC "-//W3C//DTD SVG 1.1//EN" "http://www.w3.org/Graphics/SVG/1.1/DTD/svg11.dtd">
<!-- Creator: CorelDRAW 2020 (64 Bit) -->
<svg xmlns="http://www.w3.org/2000/svg" xml:space="preserve" width="210mm" height="297mm" version="1.1" style="shape-rendering:geometricPrecision; text-rendering:geometricPrecision; image-rendering:optimizeQuality; fill-rule:evenodd; clip-rule:evenodd"
viewBox="0 0 21000 29700"
 xmlns:xlink="http://www.w3.org/1999/xlink"
 xmlns:xodm="http://www.corel.com/coreldraw/odm/2003">
 <defs>
  <style type="text/css">
   <![CDATA[
    .fil0 {fill:#4C2D21}
   ]]>
  </style>
 </defs>
 <g id="Camada_x0020_1">
  <metadata id="CorelCorpID_0Corel-Layer"/>
  <path class="fil0" d="M10641.55 22893.34l0 -6267.72 -1726.08 0 0 -2009.06 1726.08 0c0,-1376.06 -220.03,-3074.31 1235.42,-3829.68 688.09,-357.1 1458.36,-324.81 2211.01,-281.76 141.99,8.13 470.93,13.46 591.79,37.81 151.27,30.48 95.17,399.91 93.57,543.11 -4.74,421.35 -0.51,845.15 -0.51,1266.78 -505.22,0 -1535.51,-118.96 -1875.39,282.21 -267.1,315.27 -176.1,1538.18 -176.1,1981.53l1994.9 0 -262.47 2008.97 -1732.43 0.09 0 5956.46c1885.94,-597.18 3363.74,-1608.71 4471.88,-3267.22 849.41,-1271.28 1311.89,-2759.42 1350.11,-4269.88l0 -407.74c-12.98,-512.76 -75.06,-1026.09 -187.81,-1532.39 -815.82,-3663.63 -4022.46,-6210.08 -7659.35,-6298.18l-389.62 0c-347.79,8.25 -698.8,38.83 -1051.45,93.53 -3923.1,608.53 -6753.37,3973.33 -6798.29,7866.38l0 46.09c-1.44,244.86 7.73,491.67 28.74,740.06 252.04,2978.56 2163.05,5565.01 4902.01,6717.99 1121.45,472.09 2045.51,600.17 3253.99,622.62z"/>
 </g>
</svg>
