<?xml version="1.0" encoding="UTF-8"?>
<!DOCTYPE svg PUBLIC "-//W3C//DTD SVG 1.1//EN" "http://www.w3.org/Graphics/SVG/1.1/DTD/svg11.dtd">
<!-- Creator: CorelDRAW 2020 (64 Bit) -->
<svg xmlns="http://www.w3.org/2000/svg" xml:space="preserve" width="210mm" height="297mm" version="1.1" style="shape-rendering:geometricPrecision; text-rendering:geometricPrecision; image-rendering:optimizeQuality; fill-rule:evenodd; clip-rule:evenodd"
viewBox="0 0 21000 29700"
 xmlns:xlink="http://www.w3.org/1999/xlink"
 xmlns:xodm="http://www.corel.com/coreldraw/odm/2003">
 <defs>
  <style type="text/css">
   <![CDATA[
    .fil0 {fill:#4C2D21}
   ]]>
  </style>
 </defs>
 <g id="Camada_x0020_1">
  <metadata id="CorelCorpID_0Corel-Layer"/>
  <g id="_2944889350624">
   <path class="fil0" d="M15102.83 16155.1c-25.72,1308.01 -181.9,2495.68 -1551.97,3055.2 -890.44,363.64 -3314.2,267.11 -4353.88,245.36 -1293.44,-27.08 -2519.85,-195.51 -3059.58,-1558.07 -361.94,-913.72 -261.88,-3305.04 -244.02,-4367.17 21.81,-1297.21 203.97,-2504.31 1560.03,-3047.14 918.09,-367.49 3285.27,-259.99 4349.04,-242.06 1304.94,22.01 2509.66,189.79 3060.81,1556.83 367.51,911.57 260.39,3299.02 239.57,4357.05zm-4844.39 -9344.77c-4445.45,132.4 -7923.86,3827.6 -7798.48,8274.36 123.28,4372.26 3722.36,7820.53 8067.72,7808.61l2.13 0c68.71,-0.22 137.62,-1.28 206.69,-3.22 4446.73,-125.33 7929.85,-3840.79 7803.5,-8284.65 -126.38,-4445.02 -3840.55,-7927.4 -8281.56,-7795.1z"/>
   <path class="fil0" d="M8128.21 14900.48c-28.31,-1298.34 1021.71,-2391.85 2316.58,-2421.36 1305.65,-29.74 2395.56,1006.81 2421.15,2314.29 25.74,1314.73 -1001.31,2394.61 -2317.23,2422.12 -1294.15,27.04 -2392.18,-1016.46 -2420.5,-2315.05zm4282.09 -2498.43c-35.86,-710.96 1085.52,-773.79 1104.08,-43.33 18.88,743.91 -1068.04,757.74 -1104.08,43.33zm-3276.45 -1330.33c-1114.71,24.61 -2107.68,133.73 -2344.69,1440.31 -95.8,528.16 -79.12,1268.62 -78.03,1814.69 1.24,627.81 -6.86,1257.66 8.74,1885.08 27.51,1106.82 143.01,2112.17 1438.56,2346.62 549.44,99.43 1254.74,74.79 1818.99,73.36 632.2,-1.62 1267.99,8.61 1899.61,-3.28 1117.49,-21.07 2098.81,-158.47 2335.14,-1449.87 165.53,-904.53 91.09,-2720.4 67.84,-3693.99 -26.43,-1107.05 -138.88,-2113.81 -1437.34,-2347.86 -542.2,-97.74 -1258.59,-77.79 -1816.3,-76.06 -632.64,1.96 -1259.63,-2.98 -1892.52,11z"/>
   <path class="fil0" d="M10474.71 13310.57c-2061.09,40.79 -1953.35,3133.85 62.76,3080.54 2022.16,-53.46 1963.29,-3120.64 -62.76,-3080.54z"/>
  </g>
 </g>
</svg>
