<?xml version="1.0" encoding="UTF-8"?>
<!DOCTYPE svg PUBLIC "-//W3C//DTD SVG 1.1//EN" "http://www.w3.org/Graphics/SVG/1.1/DTD/svg11.dtd">
<!-- Creator: CorelDRAW 2020 (64 Bit) -->
<svg xmlns="http://www.w3.org/2000/svg" xml:space="preserve" width="210mm" height="297mm" version="1.1" style="shape-rendering:geometricPrecision; text-rendering:geometricPrecision; image-rendering:optimizeQuality; fill-rule:evenodd; clip-rule:evenodd"
viewBox="0 0 21000 29700"
 xmlns:xlink="http://www.w3.org/1999/xlink"
 xmlns:xodm="http://www.corel.com/coreldraw/odm/2003">
 <defs>
  <style type="text/css">
   <![CDATA[
    .fil0 {fill:#4C2D21}
   ]]>
  </style>
 </defs>
 <g id="Camada_x0020_1">
  <metadata id="CorelCorpID_0Corel-Layer"/>
  <g id="_2945190007504">
   <path class="fil0" d="M11280.68 11708.82c-55.82,-390.12 327.75,-1033.2 514.08,-1219.53 1066.87,-1066.87 2946.85,-315.6 2946.85,1218.78 0,1153.13 -1226.02,2118.02 -2440.73,1560.99 -177.72,-81.51 -448.71,-310.17 -544.11,-335.63l-2728.3 1517.42c61.36,391.41 92.8,387.05 -5.17,807.61l2734.1 1506.98c94.77,-24.33 365.76,-252.99 543.48,-334.5 1214.71,-557.03 2440.73,407.86 2440.73,1560.99 0,1534.38 -1879.98,2285.65 -2946.85,1218.78 -186.33,-186.33 -569.9,-829.41 -509.27,-1218.78l58.76 -409.09 -2730.04 -1506.35c-94.77,24.33 -365.76,252.99 -543.48,334.5 -1214.7,557.03 -2440.71,-407.87 -2440.72,-1560.99 0,-1153.12 1226.02,-2118.02 2440.72,-1560.99 177.72,81.51 448.71,310.17 544.11,335.64l2728.31 -1517.43 -62.47 -398.4zm-8824.01 2858.41l0 565.55c0,4048.65 3712.2,7760.55 7760.56,7760.55l565.55 0c4049.73,0 7760.55,-3711.52 7760.55,-7760.55l0 -565.55c0,-4051.06 -3710.4,-7760.56 -7760.55,-7760.56l-565.55 0c-4051.31,0 -7760.56,3709.79 -7760.56,7760.56z"/>
   <path class="fil0" d="M12228.07 11645.23c0,1132.4 1570.96,1139.86 1570.96,0 0,-395.63 -340.65,-722.63 -848.33,-722.63 -359.63,0 -722.63,359.44 -722.63,722.63z"/>
   <path class="fil0" d="M6572.6 14787.16c0,1132.4 1570.96,1139.86 1570.96,0 0,-395.63 -340.65,-722.64 -848.33,-722.64 -359.63,0 -722.63,359.45 -722.63,722.64z"/>
   <path class="fil0" d="M12228.07 17929.09c0,1132.4 1570.96,1139.86 1570.96,0 0,-395.63 -340.65,-722.64 -848.33,-722.64 -359.63,0 -722.63,359.44 -722.63,722.64z"/>
  </g>
 </g>
</svg>
