<?xml version="1.0" encoding="UTF-8"?>
<!DOCTYPE svg PUBLIC "-//W3C//DTD SVG 1.1//EN" "http://www.w3.org/Graphics/SVG/1.1/DTD/svg11.dtd">
<!-- Creator: CorelDRAW 2020 (64 Bit) -->
<svg xmlns="http://www.w3.org/2000/svg" xml:space="preserve" width="210mm" height="297mm" version="1.1" style="shape-rendering:geometricPrecision; text-rendering:geometricPrecision; image-rendering:optimizeQuality; fill-rule:evenodd; clip-rule:evenodd"
viewBox="0 0 21000 29700"
 xmlns:xlink="http://www.w3.org/1999/xlink"
 xmlns:xodm="http://www.corel.com/coreldraw/odm/2003">
 <defs>
  <style type="text/css">
   <![CDATA[
    .fil0 {fill:#4C2C21}
   ]]>
  </style>
 </defs>
 <g id="Camada_x0020_1">
  <metadata id="CorelCorpID_0Corel-Layer"/>
  <g id="_2945182369888">
   <path class="fil0" d="M10681.17 19527.64c-442.3,-0.88 -942.19,-64.33 -1368.73,-187.91 -383.32,-111.06 -704.32,-375.15 -1112.36,-346.41 -328.41,23.13 -833.7,224.29 -1202.26,300.31 -202.24,41.73 -996.06,381.04 -1100.14,200.88 -105.14,-182.02 584.47,-1911.16 553.68,-2340.45 -23.44,-326.7 -307.97,-721.38 -402.95,-1085.78 -118.78,-455.74 -186.43,-879.09 -187.38,-1351.64 3.01,-2651.42 2148.56,-4805.7 4800.68,-4810.93 2655.29,-5.23 4807.07,2131.42 4811.39,4788.34 -1.87,2658.27 -2120.26,4838.93 -4791.93,4833.59zm-312.28 -12719.89c-4449.18,72.17 -7982.71,3724.71 -7911.16,8175.52 71.44,4443.74 3736.99,7980.55 8177.72,7908.99 4442.77,-71.59 7978.23,-3737.92 7906.82,-8179.93 -71.45,-4444.53 -3731.57,-7976.62 -8173.38,-7904.58z"/>
   <path class="fil0" d="M9854.53 13778.48c-48.82,273.29 -549.03,417.76 -300.42,804.13 147.7,229.54 404.32,532.11 607.44,714.7 261.51,235.08 478.65,354.47 782.95,519.43 451.61,244.84 502.82,-8.26 743.06,-327.54 250.35,-332.72 542.47,-80.08 847.51,75.66 358.49,183.03 677.21,186.07 543.53,695.18 -199.41,759.34 -1105.59,874.46 -1743.79,657.67 -1217.8,-413.71 -2218.69,-1249.35 -2843.64,-2380.78 -334.59,-605.76 -391.95,-1418.32 174.04,-1914.66 278.81,-244.49 713.64,-203.44 852.32,201.04 66.44,193.82 364.89,799.15 337,955.17zm625.3 -3056.63c-2352.83,111.41 -4097.75,2214.93 -3774.34,4552.11 41.48,299.75 116.44,552.3 210.16,837.85 99.34,302.61 237.57,441.54 355.09,701.38 227.33,502.69 -367.63,1331.94 -237.33,1562.44 111.96,198.05 1123.13,-342.54 1528.55,-237.56 228.35,59.14 458.26,249.56 706.55,336.06 264.42,92.11 569.77,170.16 846.73,208.67 2325.8,323.3 4443.52,-1427.74 4553.87,-3773.29 111.36,-2366.88 -1823.38,-4299.69 -4189.28,-4187.66z"/>
  </g>
 </g>
</svg>
