<?xml version="1.0" encoding="UTF-8"?>
<!DOCTYPE svg PUBLIC "-//W3C//DTD SVG 1.1//EN" "http://www.w3.org/Graphics/SVG/1.1/DTD/svg11.dtd">
<!-- Creator: CorelDRAW 2020 (64 Bit) -->
<svg xmlns="http://www.w3.org/2000/svg" xml:space="preserve" width="210mm" height="297mm" version="1.1" style="shape-rendering:geometricPrecision; text-rendering:geometricPrecision; image-rendering:optimizeQuality; fill-rule:evenodd; clip-rule:evenodd"
viewBox="0 0 21000 29700"
 xmlns:xlink="http://www.w3.org/1999/xlink"
 xmlns:xodm="http://www.corel.com/coreldraw/odm/2003">
 <defs>
  <style type="text/css">
   <![CDATA[
    .fil0 {fill:#A45E4C;fill-rule:nonzero}
   ]]>
  </style>
 </defs>
 <g id="Camada_x0020_1">
  <metadata id="CorelCorpID_0Corel-Layer"/>
  <path class="fil0" d="M9866.76 7518.7c-601.94,66.95 -1171.96,188.06 -1677.03,356.3 -799.59,266.32 -1617.78,708.44 -2246.02,1213.63 -1034.54,831.93 -1781.56,1837.65 -2269.13,3054.99 -266.27,664.83 -458.78,1473.84 -493.48,2073.83 -18.57,321 -18.32,926.86 0.52,1253.28 33.65,583.43 248.11,1471.9 512.5,2123.24 691.06,1702.49 1967.78,3063.28 3625.65,3864.38 1432.32,692.11 3063.57,898.05 4623.81,583.73 1768.37,-356.24 3328.82,-1344.67 4422.07,-2801.02 820.68,-1093.28 1297.66,-2308.91 1439.4,-3668.51 36.53,-350.38 36.9,-1131.12 0.71,-1459.91 -186.78,-1696.5 -876.98,-3171.44 -2050.23,-4381.24 -479.17,-494.1 -1020.89,-918.83 -1574.91,-1234.81 -223.11,-127.24 -786.22,-399.68 -1004.72,-486.08 -651.35,-257.59 -1361.75,-428.42 -1961.53,-471.71 -232.09,-16.76 -1242.26,-31.82 -1347.61,-20.1zm-112.3 7320.15l0 3930.54 -872.21 0c-479.15,0 -917.76,-4.39 -973.28,-9.73l-101.07 -9.73 0 -3897.6c0,-3101.01 3.67,-3900.03 17.97,-3909.43 31.31,-20.63 354.88,-29.59 1160.45,-32.14l768.14 -2.45 0 3930.54zm2959.5 -3915.56l469.42 0 0 7826.64 -101.07 9.73c-55.52,5.34 -494.12,9.73 -973.27,9.73l-872.21 0 0 -3920.81c0,-2156.18 5.06,-3926.19 11.23,-3932.78 6.19,-6.59 232.84,-7.61 503.86,-2.25 271.02,5.35 703.8,9.74 962.04,9.74z"/>
 </g>
</svg>
